<svg xmlns="http://www.w3.org/2000/svg" width="280" height="280" viewBox="0 0 280 280">
  <g>
    <circle cx="197.18" cy="60.7" r="7.98" fill="#0d0604"/>
    <circle cx="193.43" cy="59.06" r="2.46" fill="#fff"/>
  </g>
  <g>
    <circle cx="92.54" cy="63.51" r="7.98" fill="#0d0604"/>
    <circle cx="88.78" cy="61.87" r="2.46" fill="#fff"/>
  </g>
  <path d="M277.77,113.46C275,99.39,270.19,86,264.9,72.73c-9.81-24.59-26.47-42.93-50.59-54-9-4.15-18.21-7.9-26.5-13.49-3.33-2.24-7.41-2.61-11-4.13h-7.51c-4.14,2.41-8.48,4.57-13.33,4.52A117.3,117.3,0,0,0,114.3,13c-2.32.85-4.13,0.54-5.73-1.53a11.56,11.56,0,0,0-5.13-3.86c-8-3.07-15.14-.59-21.38,4-7.61,5.61-11.68,14-15.08,22.61-1.2,3-2,6.34-4.76,8.4C56.18,47.07,50.72,52.21,45,57c-2.61,2.16-5.06,4.58-8.42,5.7-7,2.32-11.48,7.18-13.86,14a114.88,114.88,0,0,1-8.54,18.53A105.1,105.1,0,0,0,.31,141.72a172.55,172.55,0,0,0,.91,31.35c2.2,16.65,7.23,32,18.26,45.13a147.07,147.07,0,0,0,25,23c24.15,18,50.37,31.08,80.21,36.44,1.68,0.3,3.8-.65,5.11,1.27h30c2.65-2.12,5.92-1.07,8.84-1.45,18.7-2.44,34.93-10.43,50-21.29,20.13-14.51,35.71-32.81,45.74-55.58,6.84-15.52,12.1-31.57,14.57-48.43,0.11-.74,0-1.59,1-1.83v-24.4C278.09,122,278.58,117.6,277.77,113.46ZM53.7,88.05c3-7.23,6.71-14,12.09-19.3,5.61-5.58,13.15-8,20.93-9.16,1.73-.26,10.75-1,15.29,9.31,1.49,3.93,4.2,7.37,5,11.91C87.91,74.12,70.07,75.37,53.7,88.05Zm101.12-9.91c4.94-15.81,17.75-23.65,36.87-22.51,6.67,0.73,10.54,2.25,14.23,5.38C212,66.6,215,73.65,218.75,81.41,197.16,72.73,176.12,73.16,154.82,78.14Z" fill="#0d0604"/>
  <path d="M13.2,109.27c-0.12,5.77-2,11.41-1.19,17.16l1,0.1,2-14.78c2.12,3,.55,6,3.17,8.11a155.44,155.44,0,0,1,1.85-19.36,86.22,86.22,0,0,1,8.18-27.6,16.67,16.67,0,0,1,4.46-5.36c2.36-1.93,5-3.65,8.06-1.72,2.83,1.8,3.94,4.67,3.72,8.05-0.12,1.94-1.48,3.77-.55,5.86,3.47-5,3.42-8.74-.25-13.71A233.18,233.18,0,0,1,60.9,50.16c0.9,2-1.71,3.15-.7,5.66a48.38,48.38,0,0,0,5.65-10.45c2.67-6.8,4.55-13.89,7.68-20.52C77.77,15.83,90,8.72,100,9.53a8.87,8.87,0,0,1,6.11,3c3.13,3.48,6.18,7,7.74,11.56a4,4,0,0,0,1.65,2.3c1.09-3.23-1-5.77-1.34-8.89,13.23-4.53,26.61-8.05,41.52-6.92-3.15,4.4-3.43,9-4.18,13.91,2.25-1.45,2.25-3.58,3-5.33C159.13,7.79,174,0,187.26,8c12.27,7.43,20.31,18,27.13,30,2.93,5.14,5.68,10.38,8.64,15.5,0.79,1.36,1.57,2.91,3.37,3.71-2-10-12.15-27.45-18.73-36.71a92.21,92.21,0,0,1,42.74,36.28C242.61,61.95,239.8,66.89,242,72c1.12-4.84,3.26-8.74,7.61-11,4.11-2.16,7.74-1.12,9.7,3a39.2,39.2,0,0,1,3.82,13.88c0.36,4.82,1.1,9.61,1.88,14.39a53.46,53.46,0,0,1-.9,22.29,19.67,19.67,0,0,0-.25,3.45c2.44-1.08,2-3.8,3.76-5.46A98.36,98.36,0,0,1,265,141.71c4.49-7.05,6-14.83,5.34-23.12,1.65-.19,1.18,1.12,1.28,1.87,2.34,18.58.06,36.67-5.61,54.46-7.88,24.72-19.16,47.42-38.74,65.09-14.84,13.39-31.22,24.46-51,28.91-19.57,4.4-39.32,4.06-59.09.78a163.63,163.63,0,0,1-47-15.61c-18.54-9.33-34.2-22.38-48-37.57-9-9.88-13.3-22.33-15.6-35.47-3.16-18-3.64-36,.43-54C8.34,121,10,114.84,13.2,109.27Zm94-13.55c-2.25.76-3.9,2.48-5.88,3.68-1.72,1-3.38,2.42-5.53,2.23-4.71-.42-9.2.48-13.73,1.66a24.27,24.27,0,0,1-6.43.48c-9.27-.14-18.13-2.29-27.28-4.7,2.42,1.44.91,4.71,3.06,5.89a32.75,32.75,0,0,0,6.91,2.6,58.87,58.87,0,0,0,37.52-1.4c5-1.9,10-4.2,12.36-9.67,0.43-.33,1.2-0.76.75-1.24A1.06,1.06,0,0,0,107.15,95.71Zm114.68,3c-2.31-.41-4.1,1.16-6.17,1.62-3.71.83-7.2,3-11.23,2,0-1.41,2.32-.88,1.74-2.8-17.46,6.6-34.81,2.45-52.14-.83a1.93,1.93,0,0,0,1,2c4.51,3.63,10.27,4,15.49,5.78-0.5.76-1.77-.05-1.91,1.85,15.39,1.11,30.59,1.46,45.18-4.6,2.91-1.21,6.24-2,8-5.1l0.69-.38L222,98.08ZM254.3,64.29c-3.14,3.34-2,7.18-.9,10.79,2.52,8.13,2.39,16.1-2,23.44-11.74,19.77-28.67,32.38-51.54,36.73-22.52,4.28-45.05,7.95-68,9.84a277.06,277.06,0,0,1-63.44-2.39c-12-1.77-22.62-6.77-31-15.84-7.59-8.25-10.4-17.73-7.45-28.87,1.36-5.12,3.28-10,4.52-15.18,0.79-3.25,1.21-6.53-1.83-9.19,1.56,4.2-.43,7.81-1.61,11.53-1,3.26-2.19,6.48-3.23,9.73-4.07,12.77-.86,23.88,7.67,33.81,0.69,0.81,2.27,1.2,1.82,2.84-6.69-.14-12.92.77-17.1,6.91,9.81-4.43,19.38-5.1,29.4,1-12.6,3.51-21,12.42-26.54,27.44,1.83,1.12,2.36-.23,2.86-1.54,2.59-6.77,7.82-11.34,13-16,6.3-5.67,13.33-6.84,21.43-4.12-0.75,4.53.34,8.26,5.14,10,1.31,0.49,2.55,1.42,3.88,1.53a3.56,3.56,0,0,1,3.57,2.93c6.31-4.88,12-10,20.15-11.62-0.35,3.06-.48,6,1.6,7.82,2.77,2.42,1.68,4.53.29,6.82-1.29,2.13-2.84,4.11-4,6.3a20.29,20.29,0,0,0-2.13,13.71c1.07-3.62,1.69-6.34,2.7-8.91a28.82,28.82,0,0,1,4.18-7.8c2.52-3.12,4.79-6.82,9.71-3.6,0.56,0.37,1.5.15,2.35,0.21-0.66,1.86-2.29,3.29-1.28,5.34,7.34-10.09,9.44-8.29,17.1-4.25-6.54,9.14-9.5,26.5-5.86,35.56,1.14-1.72.69-3.44,0.71-5A77.42,77.42,0,0,1,121.41,174c2.38-8.32,7.8-13.32,16.54-14.44,0.86,2.39-.68,5.22,1.76,7.4,1.47-13.64,11.23-20.83,24.65-20.53a11.32,11.32,0,0,1,6.9,2.42c5,3.88,9.88,7.93,13.85,14,0-3.91-2.38-5.84-3.33-8.54,5.48,1.21,9.78-1.4,14.38-3,5.45-1.89,7.78-6.25,9.7-11,8.38,0.87,12.45,7.37,17.66,12.34-2.55-6.76-5.65-13-13.47-15.91,4.92-1.72,9.17-3.22,13.43-4.69a8,8,0,0,1,4.6-.38c5.27,1.25,10.27,3,14.62,7.71-1.33-7.24-7.44-8.64-11.84-12.24,4.41-2.86,7.53-7,11.61-10.18,6.32-4.87,10.53-11.37,13.58-18.66s2.6-14.61.11-21.73C254.76,72.5,253.37,68.72,254.3,64.29ZM226.64,91.17c-1.82-9-6.28-16.11-10.17-23.51-4.79-9.11-11.48-14.26-22-15.74-13-1.83-32,3.71-38.45,16.34-2.6,5.11-5.29,10.18-7.88,15.29-0.45.89-1.07,1.94,0.58,3.19,3.87-5.81,10.08-6.28,16.28-7.16,5.45-.78,10.94-0.14,16.33-0.93C198.13,76.22,212.41,82.56,226.64,91.17Zm-114-2.81a2.68,2.68,0,0,0,.35-1,87.92,87.92,0,0,0-9.06-23.86A14.57,14.57,0,0,0,93.7,56.62c-6.95-1.34-13.77-.92-20.34,2.68a44.88,44.88,0,0,0-17.5,16.8c-3.35,5.6-4.74,11.85-7,18.15,9.32-6.88,19.14-12.31,31-12.36C91.2,81.84,102.65,81.24,112.6,88.36Zm95.1,4.78c-9.31-8.35-34.42-12.61-38.94-7.43C182.05,85.12,195.19,87,207.7,93.14ZM95.57,90c-10.32-4.78-19.81-1.85-29.09,3C76,90,85.53,87.46,95.57,90Zm94.21-45.37c-8.62-3.4-15.7-2.32-19.7,3.12C176.76,43.8,183.24,44.08,189.79,44.62Zm-111,4.23c5.38-.51,10.67-1.78,16,0.2C90.53,45.16,85.84,45.15,78.83,48.85Zm160,35.54c3.77-5.43,3.54-8.32-1.05-12C239.6,76.32,239.3,80.35,238.83,84.39ZM70.08,162.78l-0.82-.66a10.07,10.07,0,0,0-4.52,8ZM47.41,79.88c-2,1.16-2.55,3.08-1.66,5.41ZM151.64,97.33a9.36,9.36,0,0,0,1.47,1.3,0.55,0.55,0,0,0,.41-0.87A1.1,1.1,0,0,0,151.64,97.33Z" fill="#fedd05"/>
  <path d="M118.22,152.31c-0.71,4.61-.25,5.51,3.82,7a7.69,7.69,0,0,0,5.91-.18A48.87,48.87,0,0,1,135.7,156c4.11-1,6.2-3.63,7.82-7.75-8.61,1.44-16.89.93-25.15,1.21C118.32,150.51,118.35,151.43,118.22,152.31Zm56-7.41c3.86,6.41,9.73,8.18,15.76,6,5.18-1.91,10.54-4.93,12.6-12.18C192.47,141.47,183.25,142.82,174.17,144.9ZM95.37,151c0.94,5.44,7.23,9.19,12.67,8.1s6.36-4.68,6.6-9.49c-5.61-.35-11.06-0.68-16.5-1C96.36,148.4,95,148.55,95.37,151Zm-26.86-6.11c-1.53-.34-3.65-0.55-4.45,1.53s0,4,1.84,5.3c4.93,3.62,10.07,3.17,14.49-1.22,1-1,2.08-1.84,3.12-2.76l-0.37-1A77,77,0,0,1,68.51,144.84Z" fill="#fff"/>
</svg>
